<?xml version="1.0" encoding="UTF-8" standalone="no"?>
<!-- Created with Inkscape (http://www.inkscape.org/) -->

<svg
   width="210mm"
   height="297mm"
   viewBox="0 0 210 297"
   version="1.1"
   id="svg1"
   sodipodi:docname="grapple_guy.svg"
   inkscape:version="1.3 (0e150ed6c4, 2023-07-21)"
   inkscape:export-filename="grapple_guy_idle.png"
   inkscape:export-xdpi="10.946801"
   inkscape:export-ydpi="10.946801"
   xmlns:inkscape="http://www.inkscape.org/namespaces/inkscape"
   xmlns:sodipodi="http://sodipodi.sourceforge.net/DTD/sodipodi-0.dtd"
   xmlns="http://www.w3.org/2000/svg"
   xmlns:svg="http://www.w3.org/2000/svg">
  <sodipodi:namedview
     id="namedview1"
     pagecolor="#505050"
     bordercolor="#ffffff"
     borderopacity="1"
     inkscape:showpageshadow="0"
     inkscape:pageopacity="0"
     inkscape:pagecheckerboard="1"
     inkscape:deskcolor="#505050"
     inkscape:document-units="mm"
     inkscape:zoom="0.75989759"
     inkscape:cx="224.37234"
     inkscape:cy="541.52034"
     inkscape:window-width="1920"
     inkscape:window-height="1057"
     inkscape:window-x="-8"
     inkscape:window-y="-8"
     inkscape:window-maximized="1"
     inkscape:current-layer="layer1" />
  <defs
     id="defs1" />
  <g
     inkscape:label="grapple_guy"
     inkscape:groupmode="layer"
     id="layer1">
    <ellipse
       style="fill:#000000;stroke-width:0.264583"
       id="path1"
       cx="106.36987"
       cy="37.951931"
       rx="24.546892"
       ry="24.02462"
       inkscape:label="head" />
    <rect
       style="fill:#000000;stroke-width:0.176319"
       id="rect2"
       width="10.832909"
       height="80.0158"
       x="101.43542"
       y="60.319607"
       inkscape:label="torso" />
    <g
       id="g4"
       inkscape:label="right_leg"
       transform="translate(0,-10.340504)">
      <path
         style="fill:#000000;stroke-width:0.185673"
         d="m 105.62085,148.78201 c 14.16658,46.15333 17.43161,50.51652 17.43161,50.51652 l 5.98962,-2.85676 -17.15544,-49.95129 z"
         id="path3"
         sodipodi:nodetypes="ccccc"
         inkscape:label="right_leg_upper" />
      <path
         style="fill:#000000;stroke-width:0.267277"
         d="m 121.29034,195.61409 c 8.86607,40.60662 4.16683,54.05045 13.33784,57.79378 9.17101,3.74333 22.68569,4.0452 18.47198,-1.19547 -4.2137,-5.24066 -12.52322,-3.29653 -14.50614,-7.28943 -1.98292,-3.99287 -10.00943,-50.11582 -10.00943,-50.11582 z"
         id="path4"
         sodipodi:nodetypes="cssscc"
         inkscape:label="right_leg_bottom" />
    </g>
    <g
       id="g6"
       inkscape:label="left_leg"
       transform="matrix(-1,0,0,1,213.55391,-10.688687)">
      <path
         style="fill:#000000;stroke-width:0.185673"
         d="m 105.62085,148.78201 c 14.16658,46.15333 17.43161,50.51652 17.43161,50.51652 l 5.98962,-2.85676 -17.15544,-49.95129 z"
         id="path5"
         sodipodi:nodetypes="ccccc"
         inkscape:label="right_leg_upper" />
      <path
         style="fill:#000000;stroke-width:0.267277"
         d="m 121.29034,195.61409 c 8.86607,40.60662 4.16683,54.05045 13.33784,57.79378 9.17101,3.74333 22.68569,4.0452 18.47198,-1.19547 -4.2137,-5.24066 -12.52322,-3.29653 -14.50614,-7.28943 -1.98292,-3.99287 -10.00943,-50.11582 -10.00943,-50.11582 z"
         id="path6"
         sodipodi:nodetypes="cssscc"
         inkscape:label="right_leg_bottom" />
    </g>
    <g
       id="g8"
       inkscape:label="right_arm">
      <path
         style="fill:#000000;stroke-width:0.229462"
         d="m 105.49942,79.037514 c 10.999,10.793661 11.37694,16.364606 15.56108,25.417356 2.77247,5.99847 4.00858,10.79368 4.00858,10.79368 l 6.19587,-4.52639 c 0,0 -1.4106,-3.83 -5.60069,-11.49004 -4.1901,-7.660023 -10.21335,-19.846424 -14.14158,-24.3728 -4.00718,-4.617362 -4.1901,-5.570927 -4.1901,-5.570927 z"
         id="path7"
         sodipodi:nodetypes="csccsscc"
         inkscape:label="right_arm_upper" />
      <path
         style="fill:#000000;stroke-width:0.264583"
         d="m 125.25879,115.9449 c 4.1782,12.88277 6.469,16.59989 8.27447,19.68289 1.1672,1.9931 3.04379,3.85772 4.77076,3.87226 4.34876,0.0366 3.49257,-3.26476 2.82334,-4.18257 -2.80095,-3.84139 -3.9433,-6.22868 -6.03241,-11.62551 -2.13677,-5.51997 -3.87353,-13.10039 -3.87353,-13.10039 l -7.96468,-3.69944 z"
         id="path8"
         sodipodi:nodetypes="cssssccc"
         inkscape:label="right_arm_lower" />
    </g>
    <g
       id="g10"
       inkscape:label="right_arm"
       transform="matrix(-1,0,0,1,212.35697,3.8300117)">
      <path
         style="fill:#000000;stroke-width:0.229462"
         d="m 105.49942,79.037514 c 10.999,10.793661 11.37694,16.364606 15.56108,25.417356 2.77247,5.99847 4.00858,10.79368 4.00858,10.79368 l 6.19587,-4.52639 c 0,0 -1.4106,-3.83 -5.60069,-11.49004 -4.1901,-7.660023 -10.21335,-19.846424 -14.14158,-24.3728 -4.00718,-4.617362 -4.1901,-5.570927 -4.1901,-5.570927 z"
         id="path9"
         sodipodi:nodetypes="csccsscc"
         inkscape:label="right_arm_upper" />
      <path
         style="fill:#000000;stroke-width:0.264583"
         d="m 125.25879,115.9449 c 4.1782,12.88277 6.469,16.59989 8.27447,19.68289 1.1672,1.9931 3.04379,3.85772 4.77076,3.87226 4.34876,0.0366 3.49257,-3.26476 2.82334,-4.18257 -2.80095,-3.84139 -3.9433,-6.22868 -6.03241,-11.62551 -2.13677,-5.51997 -3.87353,-13.10039 -3.87353,-13.10039 l -7.96468,-3.69944 z"
         id="path10"
         sodipodi:nodetypes="cssssccc"
         inkscape:label="right_arm_lower" />
    </g>
  </g>
</svg>
